<svg xmlns="http://www.w3.org/2000/svg" viewBox="0 0 64 64">
  <circle cx="32" cy="32" r="32" fill="#F7931A"/>
  <path d="M46.11 27.85c.62-4.15-2.54-6.38-6.86-7.87l1.4-5.62-3.43-.85-1.37 5.47c-.9-.23-1.83-.44-2.75-.65l1.38-5.52-3.42-.85-1.4 5.61c-.75-.17-1.48-.34-2.19-.52l.01-.03-4.73-1.18-.91 3.67s2.54.58 2.49.62c1.39.35 1.64 1.27 1.6 2l-1.6 6.4c.1.02.22.06.35.11l-.36-.09-2.24 8.98c-.17.42-.6 1.05-1.57.81.03.05-2.49-.62-2.49-.62l-1.7 3.93 4.46 1.11c.83.21 1.64.43 2.44.63l-1.42 5.69 3.42.85 1.4-5.63c.94.25 1.85.49 2.73.71l-1.4 5.59 3.43.85 1.42-5.67c5.84 1.1 10.23.66 12.07-4.62 1.48-4.25-.07-6.7-3.15-8.3 2.24-.52 3.93-1.99 4.38-5.03zm-7.83 10.98c-1.06 4.24-8.21 1.95-10.53 1.37l1.88-7.53c2.32.58 9.74 1.73 8.65 6.16zm1.06-11.03c-.96 3.86-6.9 1.9-8.83 1.42l1.7-6.83c1.93.48 8.16 1.38 7.13 5.41z" fill="#FFF"/>
</svg>
